<svg xmlns="http://www.w3.org/2000/svg" xmlns:xlink="http://www.w3.org/1999/xlink" width="40" zoomAndPan="magnify" viewBox="0 0 30 30.000001" height="40" preserveAspectRatio="xMidYMid meet" version="1.0"><defs><clipPath id="ab0c0fcb75"><path d="M 0.484375 1 L 29.515625 1 L 29.515625 26 L 0.484375 26 Z M 0.484375 1 " clip-rule="nonzero"/></clipPath></defs><g clip-path="url(#ab0c0fcb75)"><path fill="#e3e3e3" d="M 15.90625 4.875 C 17.09375 3.625 19.140625 3.269531 21.554688 3.511719 C 23.792969 3.734375 26.097656 4.460938 27.703125 5.132812 L 27.703125 23.136719 C 26.035156 22.5 23.878906 21.882812 21.738281 21.667969 C 19.753906 21.464844 17.605469 21.597656 15.90625 22.558594 Z M 15 3.234375 C 13.210938 1.699219 10.621094 1.46875 8.261719 1.707031 C 5.515625 1.984375 2.742188 2.925781 1.015625 3.710938 C 0.660156 3.871094 0.484375 4.148438 0.484375 4.535156 L 0.484375 24.496094 C 0.484375 24.648438 0.519531 24.796875 0.59375 24.929688 C 0.667969 25.066406 0.769531 25.175781 0.898438 25.257812 C 1.03125 25.34375 1.171875 25.390625 1.324219 25.402344 C 1.480469 25.410156 1.625 25.386719 1.765625 25.320312 C 3.367188 24.597656 5.945312 23.722656 8.445312 23.472656 C 11 23.214844 13.144531 23.628906 14.292969 25.0625 C 14.378906 25.167969 14.484375 25.253906 14.609375 25.3125 C 14.730469 25.371094 14.863281 25.402344 15 25.402344 C 15.136719 25.402344 15.269531 25.371094 15.390625 25.3125 C 15.515625 25.253906 15.621094 25.167969 15.707031 25.0625 C 16.855469 23.628906 19 23.214844 21.554688 23.472656 C 24.054688 23.722656 26.632812 24.597656 28.234375 25.320312 C 28.375 25.386719 28.519531 25.410156 28.675781 25.402344 C 28.828125 25.390625 28.96875 25.34375 29.101562 25.257812 C 29.230469 25.175781 29.332031 25.066406 29.40625 24.929688 C 29.480469 24.796875 29.515625 24.648438 29.515625 24.496094 L 29.515625 4.535156 C 29.515625 4.148438 29.339844 3.871094 28.984375 3.710938 C 27.257812 2.925781 24.484375 1.984375 21.738281 1.707031 C 19.378906 1.46875 16.789062 1.699219 15 3.234375 " fill-opacity="1" fill-rule="nonzero"/></g></svg>