<svg xmlns="http://www.w3.org/2000/svg" xmlns:xlink="http://www.w3.org/1999/xlink" width="40" zoomAndPan="magnify" viewBox="0 0 30 30.000001" height="40" preserveAspectRatio="xMidYMid meet" version="1.0"><path fill="#e3e3e3" d="M 11.105469 8.808594 C 11.285156 8.628906 11.371094 8.417969 11.371094 8.164062 C 11.371094 7.914062 11.285156 7.699219 11.105469 7.523438 C 10.929688 7.34375 10.714844 7.257812 10.464844 7.257812 C 10.210938 7.257812 10 7.34375 9.820312 7.523438 L 3.46875 13.875 C 3.292969 14.050781 3.203125 14.265625 3.203125 14.515625 C 3.203125 14.765625 3.292969 14.980469 3.46875 15.160156 L 9.820312 21.507812 C 10 21.6875 10.210938 21.773438 10.464844 21.773438 C 10.714844 21.773438 10.929688 21.6875 11.105469 21.507812 C 11.28125 21.332031 11.371094 21.117188 11.371094 20.867188 C 11.371094 20.617188 11.28125 20.402344 11.105469 20.222656 L 5.394531 14.515625 Z M 18.894531 8.808594 C 18.71875 8.628906 18.628906 8.417969 18.628906 8.164062 C 18.628906 7.914062 18.71875 7.699219 18.894531 7.523438 C 19.070312 7.347656 19.285156 7.257812 19.535156 7.257812 C 19.789062 7.257812 20 7.347656 20.179688 7.523438 L 26.53125 13.875 C 26.707031 14.050781 26.796875 14.265625 26.796875 14.515625 C 26.796875 14.765625 26.707031 14.980469 26.53125 15.160156 L 20.179688 21.507812 C 20 21.6875 19.789062 21.773438 19.535156 21.773438 C 19.285156 21.773438 19.070312 21.6875 18.894531 21.507812 C 18.71875 21.332031 18.628906 21.117188 18.628906 20.867188 C 18.628906 20.617188 18.71875 20.402344 18.894531 20.222656 L 24.605469 14.515625 Z M 18.894531 8.808594 " fill-opacity="1" fill-rule="nonzero"/></svg>