<svg xmlns="http://www.w3.org/2000/svg" xmlns:xlink="http://www.w3.org/1999/xlink" width="100" zoomAndPan="magnify" viewBox="0 0 75 74.999997" height="100" preserveAspectRatio="xMidYMid meet" version="1.0"><path fill="#222831" d="M 75 37.730469 C 75 16.890625 58.210938 -0.00390625 37.5 -0.00390625 C 16.78125 0 -0.0078125 16.890625 -0.0078125 37.734375 C -0.0078125 56.5625 13.707031 72.171875 31.632812 75.003906 L 31.632812 48.636719 L 22.117188 48.636719 L 22.117188 37.734375 L 31.640625 37.734375 L 31.640625 29.414062 C 31.640625 19.960938 37.242188 14.738281 45.804688 14.738281 C 49.914062 14.738281 54.203125 15.472656 54.203125 15.472656 L 54.203125 24.753906 L 49.472656 24.753906 C 44.816406 24.753906 43.363281 27.664062 43.363281 30.652344 L 43.363281 37.730469 L 53.761719 37.730469 L 52.101562 48.632812 L 43.359375 48.632812 L 43.359375 75 C 61.285156 72.167969 75 56.558594 75 37.730469 " fill-opacity="1" fill-rule="nonzero"/></svg>