<svg xmlns="http://www.w3.org/2000/svg" xmlns:xlink="http://www.w3.org/1999/xlink" width="40" zoomAndPan="magnify" viewBox="0 0 30 30.000001" height="40" preserveAspectRatio="xMidYMid meet" version="1.0"><defs><clipPath id="4761e6110d"><path d="M 0.484375 0 L 29.515625 0 L 29.515625 29.03125 L 0.484375 29.03125 Z M 0.484375 0 " clip-rule="nonzero"/></clipPath></defs><g clip-path="url(#4761e6110d)"><path fill="#222831" d="M 15 0 C 14.046875 0 13.101562 0.09375 12.167969 0.277344 C 11.234375 0.464844 10.324219 0.738281 9.445312 1.105469 C 8.5625 1.46875 7.726562 1.917969 6.933594 2.445312 C 6.144531 2.976562 5.410156 3.578125 4.734375 4.25 C 4.0625 4.925781 3.460938 5.660156 2.929688 6.453125 C 2.402344 7.242188 1.953125 8.082031 1.589844 8.960938 C 1.222656 9.839844 0.949219 10.75 0.761719 11.683594 C 0.578125 12.617188 0.484375 13.5625 0.484375 14.515625 C 0.484375 15.46875 0.578125 16.414062 0.761719 17.347656 C 0.949219 18.28125 1.222656 19.191406 1.589844 20.070312 C 1.953125 20.953125 2.402344 21.789062 2.929688 22.582031 C 3.460938 23.375 4.0625 24.105469 4.734375 24.78125 C 5.410156 25.453125 6.144531 26.054688 6.933594 26.585938 C 7.726562 27.117188 8.5625 27.5625 9.445312 27.925781 C 10.324219 28.292969 11.234375 28.566406 12.167969 28.753906 C 13.101562 28.9375 14.046875 29.03125 15 29.03125 C 15.953125 29.03125 16.898438 28.9375 17.832031 28.753906 C 18.765625 28.566406 19.675781 28.292969 20.554688 27.925781 C 21.4375 27.5625 22.273438 27.117188 23.066406 26.585938 C 23.855469 26.054688 24.589844 25.453125 25.265625 24.78125 C 25.9375 24.105469 26.539062 23.375 27.070312 22.582031 C 27.597656 21.789062 28.046875 20.953125 28.410156 20.070312 C 28.777344 19.191406 29.050781 18.28125 29.238281 17.347656 C 29.421875 16.414062 29.515625 15.46875 29.515625 14.515625 C 29.515625 13.5625 29.421875 12.617188 29.238281 11.683594 C 29.050781 10.75 28.777344 9.839844 28.410156 8.960938 C 28.046875 8.082031 27.597656 7.242188 27.070312 6.453125 C 26.539062 5.660156 25.9375 4.925781 25.265625 4.25 C 24.589844 3.578125 23.855469 2.976562 23.066406 2.445312 C 22.273438 1.917969 21.4375 1.46875 20.554688 1.105469 C 19.675781 0.738281 18.765625 0.464844 17.832031 0.277344 C 16.898438 0.09375 15.953125 0 15 0 M 4.183594 7.847656 C 4.773438 10.261719 8.78125 12.457031 10.929688 13.636719 C 11.800781 14.113281 12.367188 14.425781 12.277344 14.515625 C 12.132812 14.660156 11.984375 14.804688 11.839844 14.941406 C 11.085938 15.660156 10.410156 16.300781 10.464844 17.238281 C 10.527344 18.386719 11.585938 18.734375 12.667969 19.082031 C 13.714844 19.425781 14.785156 19.773438 15 20.867188 C 15.148438 21.625 14.863281 22.660156 14.601562 23.625 C 14.210938 25.042969 13.863281 26.308594 15 26.308594 C 17.722656 25.402344 21.890625 20.53125 22.257812 17.238281 C 22.507812 14.984375 18.628906 13.609375 15.90625 12.703125 C 15.039062 12.410156 14.539062 12.847656 14.109375 13.21875 C 13.796875 13.488281 13.527344 13.722656 13.183594 13.609375 C 12.378906 13.339844 8.648438 9.980469 10.464844 9.074219 C 11.878906 8.363281 12.191406 8.761719 12.691406 9.402344 C 12.832031 9.582031 12.984375 9.78125 13.183594 9.980469 C 14.289062 10.53125 14.386719 9.742188 14.496094 8.832031 C 14.566406 8.246094 14.644531 7.613281 15 7.257812 C 15.789062 6.46875 17.296875 5.824219 18.679688 5.226562 C 19.972656 4.671875 21.15625 4.160156 21.546875 3.628906 C 22.261719 4.058594 22.929688 4.554688 23.546875 5.117188 C 24.164062 5.679688 24.722656 6.300781 25.21875 6.972656 C 25.714844 7.644531 26.140625 8.359375 26.496094 9.117188 C 26.851562 9.871094 27.128906 10.65625 27.332031 11.46875 C 27.53125 12.28125 27.648438 13.101562 27.6875 13.9375 C 27.726562 14.773438 27.683594 15.601562 27.554688 16.429688 C 27.429688 17.257812 27.222656 18.0625 26.9375 18.847656 C 26.652344 19.632812 26.292969 20.382812 25.859375 21.097656 C 25.425781 21.8125 24.929688 22.480469 24.363281 23.09375 C 23.800781 23.710938 23.179688 24.265625 22.503906 24.761719 C 21.832031 25.253906 21.113281 25.679688 20.355469 26.03125 C 19.597656 26.382812 18.8125 26.660156 18 26.855469 C 17.1875 27.054688 16.367188 27.167969 15.53125 27.203125 C 14.695312 27.238281 13.863281 27.191406 13.039062 27.0625 C 12.210938 26.933594 11.40625 26.726562 10.621094 26.4375 C 9.835938 26.148438 9.089844 25.789062 8.375 25.351562 C 7.664062 24.914062 7 24.414062 6.382812 23.847656 C 5.769531 23.28125 5.21875 22.660156 4.726562 21.984375 C 4.234375 21.308594 3.8125 20.589844 3.464844 19.828125 C 3.113281 19.070312 2.839844 18.285156 2.648438 17.472656 C 2.453125 16.660156 2.339844 15.835938 2.308594 15 C 2.273438 14.164062 2.324219 13.332031 2.457031 12.507812 C 2.589844 11.683594 2.800781 10.878906 3.089844 10.09375 C 3.382812 9.3125 3.746094 8.5625 4.183594 7.851562 Z M 4.183594 7.847656 " fill-opacity="1" fill-rule="nonzero"/></g></svg>