<svg xmlns="http://www.w3.org/2000/svg" xmlns:xlink="http://www.w3.org/1999/xlink" width="100" zoomAndPan="magnify" viewBox="0 0 75 74.999997" height="100" preserveAspectRatio="xMidYMid meet" version="1.0"><path fill="#222831" d="M 37.5 0 C 16.78125 0 0 16.78125 0 37.5 C 0 54.09375 10.734375 68.109375 25.640625 73.078125 C 27.515625 73.40625 28.21875 72.28125 28.21875 71.296875 C 28.21875 70.40625 28.171875 67.453125 28.171875 64.3125 C 18.75 66.046875 16.3125 62.015625 15.5625 59.90625 C 15.140625 58.828125 13.3125 55.5 11.71875 54.609375 C 10.40625 53.90625 8.53125 52.171875 11.671875 52.125 C 14.625 52.078125 16.734375 54.84375 17.4375 55.96875 C 20.8125 61.640625 26.203125 60.046875 28.359375 59.0625 C 28.6875 56.625 29.671875 54.984375 30.75 54.046875 C 22.40625 53.109375 13.6875 49.875 13.6875 35.53125 C 13.6875 31.453125 15.140625 28.078125 17.53125 25.453125 C 17.15625 24.515625 15.84375 20.671875 17.90625 15.515625 C 17.90625 15.515625 21.046875 14.53125 28.21875 19.359375 C 31.21875 18.515625 34.40625 18.09375 37.59375 18.09375 C 40.78125 18.09375 43.96875 18.515625 46.96875 19.359375 C 54.140625 14.484375 57.28125 15.515625 57.28125 15.515625 C 59.34375 20.671875 58.03125 24.515625 57.65625 25.453125 C 60.046875 28.078125 61.5 31.40625 61.5 35.53125 C 61.5 49.921875 52.734375 53.109375 44.390625 54.046875 C 45.75 55.21875 46.921875 57.46875 46.921875 60.984375 C 46.921875 66 46.875 70.03125 46.875 71.296875 C 46.875 72.28125 47.578125 73.453125 49.453125 73.078125 C 51.304688 72.453125 53.09375 71.691406 54.824219 70.789062 C 56.554688 69.882812 58.207031 68.851562 59.777344 67.691406 C 61.347656 66.53125 62.816406 65.253906 64.1875 63.863281 C 65.558594 62.472656 66.8125 60.984375 67.953125 59.398438 C 69.089844 57.8125 70.097656 56.148438 70.980469 54.40625 C 71.859375 52.664062 72.597656 50.863281 73.195312 49.003906 C 73.792969 47.144531 74.242188 45.25 74.546875 43.320312 C 74.847656 41.394531 75 39.453125 75 37.5 C 75 16.78125 58.21875 0 37.5 0 " fill-opacity="1" fill-rule="nonzero"/></svg>