<svg xmlns="http://www.w3.org/2000/svg" xmlns:xlink="http://www.w3.org/1999/xlink" width="40" zoomAndPan="magnify" viewBox="0 0 30 30.000001" height="40" preserveAspectRatio="xMidYMid meet" version="1.0"><path fill="#222831" d="M 5.019531 27.21875 C 4.769531 27.21875 4.554688 27.128906 4.378906 26.953125 C 4.203125 26.773438 4.113281 26.5625 4.113281 26.308594 C 4.113281 26.058594 4.203125 25.847656 4.378906 25.667969 C 4.554688 25.492188 4.769531 25.402344 5.019531 25.402344 L 6.835938 25.402344 L 6.835938 23.589844 C 6.835938 22.820312 6.941406 22.0625 7.15625 21.324219 C 7.367188 20.582031 7.679688 19.886719 8.089844 19.234375 C 8.5 18.582031 8.996094 18 9.570312 17.488281 C 10.144531 16.976562 10.78125 16.554688 11.472656 16.222656 C 12 15.96875 12.277344 15.539062 12.277344 15.152344 L 12.277344 13.882812 C 12.277344 13.496094 12 13.0625 11.472656 12.808594 C 10.78125 12.476562 10.144531 12.054688 9.570312 11.542969 C 8.996094 11.03125 8.5 10.449219 8.089844 9.796875 C 7.679688 9.144531 7.367188 8.449219 7.15625 7.710938 C 6.941406 6.96875 6.835938 6.214844 6.835938 5.445312 L 6.835938 3.628906 L 5.019531 3.628906 C 4.769531 3.628906 4.554688 3.539062 4.378906 3.363281 C 4.203125 3.1875 4.113281 2.972656 4.113281 2.722656 C 4.113281 2.472656 4.203125 2.257812 4.378906 2.082031 C 4.554688 1.902344 4.769531 1.816406 5.019531 1.816406 L 24.980469 1.816406 C 25.230469 1.816406 25.445312 1.902344 25.621094 2.082031 C 25.796875 2.257812 25.886719 2.472656 25.886719 2.722656 C 25.886719 2.972656 25.796875 3.1875 25.621094 3.363281 C 25.445312 3.539062 25.230469 3.628906 24.980469 3.628906 L 23.164062 3.628906 L 23.164062 5.445312 C 23.164062 6.214844 23.058594 6.96875 22.84375 7.710938 C 22.632812 8.449219 22.320312 9.144531 21.910156 9.796875 C 21.5 10.449219 21.003906 11.03125 20.429688 11.542969 C 19.855469 12.054688 19.21875 12.476562 18.527344 12.808594 C 18 13.0625 17.722656 13.496094 17.722656 13.882812 L 17.722656 15.152344 C 17.722656 15.539062 18 15.96875 18.527344 16.222656 C 19.21875 16.554688 19.855469 16.976562 20.429688 17.488281 C 21.003906 18 21.5 18.582031 21.910156 19.234375 C 22.320312 19.886719 22.632812 20.582031 22.84375 21.324219 C 23.058594 22.0625 23.164062 22.820312 23.164062 23.589844 L 23.164062 25.402344 L 24.980469 25.402344 C 25.230469 25.402344 25.445312 25.492188 25.621094 25.667969 C 25.796875 25.847656 25.886719 26.058594 25.886719 26.308594 C 25.886719 26.5625 25.796875 26.773438 25.621094 26.953125 C 25.445312 27.128906 25.230469 27.21875 24.980469 27.21875 Z M 8.648438 3.628906 L 8.648438 5.445312 C 8.648438 6.417969 8.867188 7.339844 9.261719 8.164062 L 20.738281 8.164062 C 21.132812 7.339844 21.351562 6.417969 21.351562 5.445312 L 21.351562 3.628906 Z M 14.09375 15.152344 C 14.09375 16.421875 13.226562 17.394531 12.257812 17.859375 C 11.71875 18.117188 11.222656 18.445312 10.777344 18.84375 C 10.328125 19.242188 9.945312 19.695312 9.625 20.203125 C 9.308594 20.710938 9.0625 21.25 8.898438 21.828125 C 8.730469 22.402344 8.648438 22.988281 8.648438 23.589844 C 8.648438 23.589844 10.21875 21.230469 14.09375 20.902344 Z M 15.90625 15.152344 L 15.90625 20.902344 C 19.78125 21.230469 21.351562 23.589844 21.351562 23.589844 C 21.351562 22.988281 21.269531 22.402344 21.101562 21.828125 C 20.9375 21.25 20.691406 20.710938 20.375 20.203125 C 20.054688 19.695312 19.671875 19.242188 19.222656 18.84375 C 18.777344 18.445312 18.28125 18.117188 17.742188 17.859375 C 16.773438 17.394531 15.90625 16.425781 15.90625 15.152344 Z M 15.90625 15.152344 " fill-opacity="1" fill-rule="nonzero"/></svg>