<svg xmlns="http://www.w3.org/2000/svg" xmlns:xlink="http://www.w3.org/1999/xlink" width="100" zoomAndPan="magnify" viewBox="0 0 75 74.999997" height="100" preserveAspectRatio="xMidYMid meet" version="1.0"><path fill="#222831" d="M 37.5 0 C 27.324219 0 26.042969 0.046875 22.046875 0.226562 C 18.046875 0.414062 15.324219 1.039062 12.9375 1.96875 C 10.402344 2.917969 8.1875 4.363281 6.296875 6.296875 C 4.363281 8.1875 2.917969 10.402344 1.96875 12.9375 C 1.039062 15.320312 0.40625 18.046875 0.226562 22.03125 C 0.046875 26.039062 0 27.3125 0 37.503906 C 0 47.6875 0.046875 48.960938 0.226562 52.960938 C 0.414062 56.953125 1.039062 59.675781 1.96875 62.0625 C 2.929688 64.527344 4.210938 66.617188 6.296875 68.703125 C 8.375 70.789062 10.46875 72.074219 12.933594 73.03125 C 15.324219 73.960938 18.042969 74.59375 22.035156 74.773438 C 26.039062 74.953125 27.3125 75 37.5 75 C 47.6875 75 48.957031 74.953125 52.960938 74.773438 C 56.949219 74.585938 59.679688 73.960938 62.066406 73.03125 C 64.601562 72.082031 66.8125 70.636719 68.703125 68.703125 C 70.789062 66.617188 72.070312 64.527344 73.03125 62.0625 C 73.953125 59.675781 74.585938 56.953125 74.773438 52.960938 C 74.953125 48.960938 75 47.6875 75 37.5 C 75 27.3125 74.953125 26.039062 74.773438 22.035156 C 74.585938 18.046875 73.953125 15.320312 73.03125 12.9375 C 72.082031 10.402344 70.636719 8.1875 68.703125 6.296875 C 66.8125 4.363281 64.597656 2.917969 62.0625 1.96875 C 59.671875 1.039062 56.945312 0.40625 52.953125 0.226562 C 48.953125 0.046875 47.679688 0 37.492188 0 Z M 34.140625 6.757812 L 37.503906 6.757812 C 47.515625 6.757812 48.703125 6.792969 52.65625 6.976562 C 56.3125 7.140625 58.296875 7.753906 59.621094 8.265625 C 61.367188 8.945312 62.621094 9.757812 63.933594 11.070312 C 65.246094 12.382812 66.054688 13.632812 66.734375 15.382812 C 67.25 16.703125 67.859375 18.6875 68.023438 22.34375 C 68.207031 26.296875 68.246094 27.484375 68.246094 37.492188 C 68.246094 47.5 68.207031 48.6875 68.023438 52.640625 C 67.859375 56.296875 67.246094 58.28125 66.734375 59.601562 C 66.121094 61.246094 65.1875 62.683594 63.929688 63.910156 C 62.617188 65.222656 61.367188 66.03125 59.617188 66.710938 C 58.304688 67.226562 56.316406 67.835938 52.65625 68.007812 C 48.703125 68.183594 47.515625 68.226562 37.503906 68.226562 C 27.492188 68.226562 26.300781 68.183594 22.351562 68.007812 C 18.695312 67.835938 16.710938 67.226562 15.390625 66.710938 C 13.742188 66.101562 12.304688 65.167969 11.078125 63.910156 C 9.816406 62.683594 8.878906 61.246094 8.265625 59.597656 C 7.753906 58.28125 7.140625 56.292969 6.976562 52.636719 C 6.796875 48.683594 6.757812 47.5 6.757812 37.480469 C 6.757812 27.464844 6.796875 26.289062 6.976562 22.335938 C 7.144531 18.679688 7.753906 16.691406 8.269531 15.371094 C 8.949219 13.621094 9.765625 12.371094 11.078125 11.058594 C 12.390625 9.746094 13.636719 8.933594 15.390625 8.253906 C 16.710938 7.738281 18.695312 7.128906 22.351562 6.960938 C 25.808594 6.800781 27.148438 6.753906 34.140625 6.75 Z M 57.519531 12.984375 C 57.226562 12.984375 56.933594 13.011719 56.640625 13.070312 C 56.351562 13.128906 56.070312 13.214844 55.796875 13.328125 C 55.523438 13.441406 55.265625 13.578125 55.019531 13.742188 C 54.773438 13.90625 54.546875 14.09375 54.339844 14.300781 C 54.128906 14.511719 53.941406 14.738281 53.777344 14.984375 C 53.613281 15.230469 53.476562 15.488281 53.363281 15.761719 C 53.25 16.035156 53.164062 16.316406 53.105469 16.605469 C 53.050781 16.894531 53.019531 17.1875 53.019531 17.484375 C 53.019531 17.78125 53.050781 18.074219 53.105469 18.363281 C 53.164062 18.652344 53.25 18.933594 53.363281 19.207031 C 53.476562 19.480469 53.613281 19.738281 53.777344 19.984375 C 53.941406 20.230469 54.128906 20.457031 54.339844 20.667969 C 54.546875 20.875 54.773438 21.0625 55.019531 21.226562 C 55.265625 21.390625 55.523438 21.527344 55.796875 21.640625 C 56.070312 21.753906 56.351562 21.839844 56.640625 21.898438 C 56.933594 21.957031 57.226562 21.984375 57.519531 21.984375 C 57.816406 21.984375 58.109375 21.957031 58.398438 21.898438 C 58.6875 21.839844 58.96875 21.753906 59.242188 21.640625 C 59.515625 21.527344 59.773438 21.390625 60.019531 21.226562 C 60.265625 21.0625 60.492188 20.875 60.703125 20.667969 C 60.910156 20.457031 61.097656 20.230469 61.261719 19.984375 C 61.425781 19.738281 61.566406 19.480469 61.679688 19.207031 C 61.789062 18.933594 61.875 18.652344 61.933594 18.363281 C 61.992188 18.074219 62.019531 17.78125 62.019531 17.484375 C 62.019531 17.1875 61.992188 16.894531 61.933594 16.605469 C 61.875 16.316406 61.789062 16.035156 61.679688 15.761719 C 61.566406 15.488281 61.425781 15.230469 61.261719 14.984375 C 61.097656 14.738281 60.910156 14.511719 60.703125 14.300781 C 60.492188 14.09375 60.265625 13.90625 60.019531 13.742188 C 59.773438 13.578125 59.515625 13.441406 59.242188 13.328125 C 58.96875 13.214844 58.6875 13.128906 58.398438 13.070312 C 58.109375 13.011719 57.816406 12.984375 57.519531 12.984375 M 37.503906 18.242188 C 36.867188 18.234375 36.230469 18.253906 35.597656 18.308594 C 34.960938 18.363281 34.332031 18.445312 33.703125 18.5625 C 33.078125 18.675781 32.460938 18.824219 31.847656 19 C 31.234375 19.179688 30.632812 19.386719 30.042969 19.621094 C 29.449219 19.859375 28.871094 20.125 28.308594 20.417969 C 27.742188 20.714844 27.191406 21.035156 26.660156 21.382812 C 26.125 21.734375 25.613281 22.105469 25.117188 22.507812 C 24.621094 22.90625 24.144531 23.328125 23.691406 23.777344 C 23.238281 24.222656 22.804688 24.691406 22.398438 25.183594 C 21.992188 25.671875 21.609375 26.179688 21.253906 26.707031 C 20.894531 27.234375 20.566406 27.78125 20.261719 28.339844 C 19.957031 28.902344 19.683594 29.472656 19.4375 30.0625 C 19.191406 30.648438 18.976562 31.25 18.789062 31.855469 C 18.601562 32.464844 18.445312 33.082031 18.320312 33.707031 C 18.195312 34.332031 18.101562 34.960938 18.039062 35.597656 C 17.976562 36.230469 17.941406 36.867188 17.941406 37.503906 C 17.941406 38.140625 17.976562 38.773438 18.039062 39.410156 C 18.101562 40.042969 18.195312 40.671875 18.320312 41.296875 C 18.445312 41.921875 18.601562 42.539062 18.789062 43.148438 C 18.976562 43.757812 19.191406 44.355469 19.4375 44.941406 C 19.683594 45.53125 19.960938 46.105469 20.261719 46.664062 C 20.566406 47.226562 20.894531 47.769531 21.253906 48.296875 C 21.609375 48.824219 21.992188 49.332031 22.398438 49.824219 C 22.804688 50.3125 23.238281 50.78125 23.691406 51.226562 C 24.144531 51.675781 24.621094 52.097656 25.117188 52.496094 C 25.613281 52.898438 26.125 53.273438 26.660156 53.621094 C 27.191406 53.96875 27.742188 54.292969 28.308594 54.585938 C 28.871094 54.878906 29.449219 55.144531 30.042969 55.382812 C 30.632812 55.617188 31.234375 55.824219 31.847656 56.003906 C 32.460938 56.179688 33.078125 56.328125 33.703125 56.441406 C 34.332031 56.558594 34.960938 56.644531 35.597656 56.695312 C 36.230469 56.75 36.867188 56.769531 37.503906 56.761719 C 38.128906 56.75 38.75 56.710938 39.371094 56.640625 C 39.992188 56.570312 40.609375 56.46875 41.21875 56.339844 C 41.832031 56.210938 42.433594 56.050781 43.027344 55.863281 C 43.625 55.671875 44.207031 55.457031 44.78125 55.210938 C 45.355469 54.964844 45.917969 54.691406 46.464844 54.390625 C 47.011719 54.089844 47.542969 53.765625 48.0625 53.414062 C 48.578125 53.058594 49.074219 52.683594 49.554688 52.285156 C 50.03125 51.882812 50.492188 51.460938 50.929688 51.015625 C 51.367188 50.570312 51.785156 50.105469 52.175781 49.621094 C 52.570312 49.132812 52.9375 48.628906 53.28125 48.109375 C 53.625 47.589844 53.941406 47.050781 54.234375 46.5 C 54.527344 45.945312 54.789062 45.382812 55.027344 44.804688 C 55.265625 44.226562 55.472656 43.636719 55.652344 43.039062 C 55.832031 42.441406 55.980469 41.835938 56.101562 41.222656 C 56.222656 40.609375 56.3125 39.992188 56.375 39.371094 C 56.433594 38.75 56.464844 38.125 56.464844 37.503906 C 56.464844 36.878906 56.433594 36.253906 56.375 35.632812 C 56.3125 35.011719 56.222656 34.394531 56.101562 33.78125 C 55.980469 33.167969 55.832031 32.5625 55.652344 31.964844 C 55.472656 31.367188 55.265625 30.777344 55.027344 30.199219 C 54.789062 29.621094 54.527344 29.058594 54.234375 28.503906 C 53.941406 27.953125 53.625 27.417969 53.28125 26.894531 C 52.9375 26.375 52.570312 25.871094 52.175781 25.386719 C 51.785156 24.898438 51.367188 24.433594 50.929688 23.988281 C 50.492188 23.542969 50.03125 23.121094 49.554688 22.722656 C 49.074219 22.320312 48.578125 21.945312 48.0625 21.59375 C 47.542969 21.242188 47.011719 20.914062 46.464844 20.613281 C 45.917969 20.3125 45.355469 20.039062 44.78125 19.796875 C 44.207031 19.550781 43.625 19.332031 43.027344 19.144531 C 42.433594 18.953125 41.832031 18.792969 41.21875 18.664062 C 40.609375 18.535156 39.992188 18.433594 39.371094 18.363281 C 38.75 18.292969 38.128906 18.253906 37.503906 18.242188 M 37.503906 25 C 38.324219 25 39.140625 25.078125 39.945312 25.238281 C 40.75 25.398438 41.53125 25.636719 42.289062 25.949219 C 43.046875 26.261719 43.769531 26.648438 44.453125 27.105469 C 45.136719 27.558594 45.765625 28.078125 46.347656 28.660156 C 46.929688 29.238281 47.445312 29.871094 47.902344 30.554688 C 48.359375 31.234375 48.746094 31.957031 49.058594 32.714844 C 49.371094 33.472656 49.609375 34.253906 49.769531 35.058594 C 49.929688 35.867188 50.011719 36.679688 50.011719 37.5 C 50.011719 38.320312 49.929688 39.132812 49.769531 39.941406 C 49.609375 40.746094 49.371094 41.527344 49.058594 42.285156 C 48.746094 43.042969 48.359375 43.765625 47.902344 44.445312 C 47.445312 45.128906 46.929688 45.761719 46.347656 46.339844 C 45.765625 46.921875 45.136719 47.441406 44.453125 47.894531 C 43.769531 48.351562 43.046875 48.738281 42.289062 49.050781 C 41.53125 49.363281 40.75 49.601562 39.945312 49.761719 C 39.140625 49.921875 38.324219 50 37.503906 50 C 36.683594 50 35.871094 49.921875 35.066406 49.761719 C 34.261719 49.601562 33.480469 49.363281 32.71875 49.050781 C 31.960938 48.734375 31.242188 48.351562 30.558594 47.894531 C 29.875 47.4375 29.246094 46.921875 28.664062 46.339844 C 28.085938 45.757812 27.566406 45.128906 27.109375 44.445312 C 26.652344 43.761719 26.269531 43.042969 25.953125 42.285156 C 25.640625 41.527344 25.402344 40.742188 25.242188 39.9375 C 25.082031 39.132812 25.003906 38.320312 25.003906 37.5 C 25.003906 36.679688 25.082031 35.867188 25.242188 35.0625 C 25.402344 34.257812 25.640625 33.472656 25.953125 32.714844 C 26.269531 31.957031 26.652344 31.238281 27.109375 30.554688 C 27.566406 29.871094 28.085938 29.242188 28.664062 28.660156 C 29.246094 28.078125 29.875 27.5625 30.558594 27.105469 C 31.242188 26.648438 31.960938 26.265625 32.71875 25.949219 C 33.480469 25.636719 34.261719 25.398438 35.066406 25.238281 C 35.871094 25.078125 36.683594 25 37.503906 25 " fill-opacity="1" fill-rule="nonzero"/></svg>