<svg xmlns="http://www.w3.org/2000/svg" xmlns:xlink="http://www.w3.org/1999/xlink" width="40" zoomAndPan="magnify" viewBox="0 0 30 30.000001" height="40" preserveAspectRatio="xMidYMid meet" version="1.0"><defs><clipPath id="2d3f025b1f"><path d="M 0.484375 0 L 29 0 L 29 29.03125 L 0.484375 29.03125 Z M 0.484375 0 " clip-rule="nonzero"/></clipPath></defs><g clip-path="url(#2d3f025b1f)"><path fill="#222831" d="M 24.976562 1.441406 L 25.246094 1.171875 C 25.453125 0.964844 25.6875 0.808594 25.957031 0.695312 C 26.226562 0.585938 26.503906 0.53125 26.796875 0.53125 C 27.085938 0.53125 27.367188 0.585938 27.632812 0.699219 C 27.902344 0.808594 28.140625 0.96875 28.34375 1.171875 C 28.550781 1.378906 28.710938 1.613281 28.820312 1.882812 C 28.929688 2.152344 28.988281 2.433594 28.988281 2.722656 C 28.988281 3.011719 28.929688 3.292969 28.820312 3.5625 C 28.707031 3.828125 28.550781 4.066406 28.34375 4.269531 L 28.074219 4.539062 C 28.304688 4.800781 28.480469 5.09375 28.597656 5.417969 C 28.71875 5.746094 28.773438 6.082031 28.761719 6.429688 C 28.753906 6.777344 28.679688 7.109375 28.542969 7.429688 C 28.402344 7.746094 28.210938 8.03125 27.964844 8.277344 L 9.292969 26.953125 C 9.171875 27.070312 9.03125 27.148438 8.867188 27.191406 L 1.609375 29.003906 C 1.457031 29.042969 1.300781 29.042969 1.148438 29 C 0.996094 28.957031 0.863281 28.878906 0.75 28.765625 C 0.636719 28.652344 0.558594 28.519531 0.515625 28.367188 C 0.476562 28.214844 0.472656 28.058594 0.511719 27.90625 L 2.324219 20.648438 C 2.367188 20.484375 2.445312 20.34375 2.5625 20.226562 L 20.058594 2.730469 C 19.878906 2.605469 19.679688 2.550781 19.457031 2.570312 C 19.238281 2.589844 19.050781 2.675781 18.894531 2.832031 L 12.921875 8.808594 C 12.742188 8.984375 12.527344 9.074219 12.277344 9.074219 C 12.027344 9.074219 11.8125 8.984375 11.636719 8.808594 C 11.457031 8.628906 11.371094 8.417969 11.371094 8.164062 C 11.371094 7.914062 11.457031 7.699219 11.636719 7.523438 L 17.613281 1.550781 C 17.859375 1.304688 18.140625 1.113281 18.460938 0.972656 C 18.78125 0.835938 19.113281 0.761719 19.460938 0.753906 C 19.808594 0.742188 20.144531 0.796875 20.472656 0.917969 C 20.796875 1.039062 21.089844 1.210938 21.351562 1.445312 C 21.601562 1.222656 21.882812 1.050781 22.191406 0.929688 C 22.503906 0.8125 22.828125 0.753906 23.164062 0.753906 C 23.496094 0.75 23.820312 0.8125 24.132812 0.929688 C 24.445312 1.050781 24.726562 1.21875 24.976562 1.441406 M 23.808594 2.832031 C 23.628906 2.65625 23.417969 2.566406 23.167969 2.566406 C 22.914062 2.566406 22.703125 2.65625 22.523438 2.832031 L 4.023438 21.332031 L 2.636719 26.878906 L 8.183594 25.492188 L 26.683594 6.992188 C 26.863281 6.816406 26.953125 6.601562 26.953125 6.351562 C 26.953125 6.101562 26.863281 5.886719 26.683594 5.707031 Z M 23.808594 2.832031 " fill-opacity="1" fill-rule="nonzero"/></g></svg>