<svg xmlns="http://www.w3.org/2000/svg" xmlns:xlink="http://www.w3.org/1999/xlink" width="40" zoomAndPan="magnify" viewBox="0 0 30 30.000001" height="40" preserveAspectRatio="xMidYMid meet" version="1.0"><defs><clipPath id="39914517e5"><path d="M 0.484375 0 L 29.515625 0 L 29.515625 29 L 0.484375 29 Z M 0.484375 0 " clip-rule="nonzero"/></clipPath></defs><g clip-path="url(#39914517e5)"><path fill="#222831" d="M 10.199219 9.289062 L 14.160156 1.4375 C 14.332031 1.085938 14.613281 0.910156 15 0.90625 C 15.332031 0.90625 15.664062 1.082031 15.84375 1.4375 L 19.808594 9.289062 L 28.695312 10.550781 C 28.921875 10.589844 29.113281 10.691406 29.265625 10.863281 C 29.421875 11.035156 29.503906 11.238281 29.515625 11.46875 C 29.542969 11.785156 29.441406 12.054688 29.207031 12.273438 L 22.816406 18.363281 L 24.320312 26.949219 C 24.460938 27.75 23.667969 28.378906 22.96875 28.023438 L 15 23.929688 L 7.035156 28.023438 C 6.953125 28.066406 6.863281 28.097656 6.769531 28.113281 C 6.152344 28.222656 5.558594 27.652344 5.683594 26.949219 L 7.1875 18.363281 L 0.796875 12.273438 C 0.589844 12.078125 0.484375 11.832031 0.484375 11.542969 C 0.488281 11.347656 0.539062 11.164062 0.640625 10.996094 C 0.792969 10.738281 1.015625 10.589844 1.3125 10.550781 Z M 15 21.824219 C 15.148438 21.824219 15.289062 21.855469 15.421875 21.925781 L 22.109375 25.363281 L 20.851562 18.179688 C 20.785156 17.824219 20.882812 17.519531 21.144531 17.265625 L 26.417969 12.238281 L 19.066406 11.195312 C 18.738281 11.144531 18.5 10.96875 18.351562 10.671875 L 15 4.035156 Z M 15 21.824219 " fill-opacity="1" fill-rule="nonzero"/></g></svg>