<svg xmlns="http://www.w3.org/2000/svg" xmlns:xlink="http://www.w3.org/1999/xlink" width="40" zoomAndPan="magnify" viewBox="0 0 30 30.000001" height="40" preserveAspectRatio="xMidYMid meet" version="1.0"><defs><clipPath id="16ad45e376"><path d="M 0.484375 0 L 29.515625 0 L 29.515625 29 L 0.484375 29 Z M 0.484375 0 " clip-rule="nonzero"/></clipPath></defs><g clip-path="url(#16ad45e376)"><path fill="#222831" d="M 5.683594 26.945312 C 5.542969 27.75 6.335938 28.378906 7.039062 28.023438 L 15.003906 23.929688 L 22.96875 28.023438 C 23.667969 28.378906 24.460938 27.75 24.320312 26.949219 L 22.816406 18.363281 L 29.207031 12.273438 C 29.804688 11.707031 29.496094 10.664062 28.695312 10.550781 L 19.808594 9.289062 L 15.84375 1.4375 C 15.675781 1.082031 15.394531 0.90625 15.003906 0.90625 C 14.609375 0.90625 14.328125 1.082031 14.160156 1.4375 L 10.199219 9.289062 L 1.3125 10.554688 C 0.511719 10.664062 0.199219 11.707031 0.796875 12.277344 L 7.191406 18.367188 L 5.683594 26.949219 Z M 14.585938 21.925781 L 7.894531 25.363281 L 9.15625 18.179688 C 9.222656 17.824219 9.121094 17.515625 8.859375 17.265625 L 3.585938 12.238281 L 10.9375 11.195312 C 11.265625 11.144531 11.503906 10.96875 11.652344 10.671875 L 15 4.035156 L 18.351562 10.671875 C 18.5 10.96875 18.738281 11.144531 19.066406 11.195312 L 26.417969 12.238281 L 21.144531 17.261719 C 20.878906 17.515625 20.78125 17.820312 20.847656 18.179688 L 22.109375 25.363281 L 15.417969 21.925781 C 15.140625 21.78125 14.863281 21.78125 14.582031 21.925781 Z M 14.585938 21.925781 " fill-opacity="1" fill-rule="nonzero"/></g></svg>