<svg xmlns="http://www.w3.org/2000/svg" xmlns:xlink="http://www.w3.org/1999/xlink" width="40" zoomAndPan="magnify" viewBox="0 0 30 30.000001" height="40" preserveAspectRatio="xMidYMid meet" version="1.0"><defs><clipPath id="b20e8ab1ae"><path d="M 0.484375 0 L 29.515625 0 L 29.515625 29 L 0.484375 29 Z M 0.484375 0 " clip-rule="nonzero"/></clipPath></defs><g clip-path="url(#b20e8ab1ae)"><path fill="#222831" d="M 7.039062 28.023438 C 6.335938 28.378906 5.542969 27.75 5.683594 26.949219 L 7.191406 18.363281 L 0.796875 12.273438 C 0.199219 11.707031 0.511719 10.664062 1.3125 10.550781 L 10.199219 9.289062 L 14.160156 1.4375 C 14.519531 0.730469 15.484375 0.730469 15.84375 1.4375 L 19.808594 9.289062 L 28.695312 10.550781 C 29.496094 10.664062 29.804688 11.707031 29.207031 12.273438 L 22.816406 18.363281 L 24.320312 26.949219 C 24.460938 27.75 23.667969 28.378906 22.96875 28.023438 L 15 23.929688 L 7.035156 28.023438 Z M 7.039062 28.023438 " fill-opacity="1" fill-rule="nonzero"/></g></svg>