<svg xmlns="http://www.w3.org/2000/svg" xmlns:xlink="http://www.w3.org/1999/xlink" width="40" zoomAndPan="magnify" viewBox="0 0 30 30.000001" height="40" preserveAspectRatio="xMidYMid meet" version="1.0"><path fill="#e3e3e3" d="M 19.800781 1.171875 C 19.976562 0.996094 20.191406 0.90625 20.445312 0.90625 C 20.695312 0.90625 20.910156 0.996094 21.085938 1.171875 L 28.34375 8.429688 C 28.523438 8.609375 28.609375 8.820312 28.609375 9.074219 C 28.609375 9.324219 28.523438 9.539062 28.34375 9.714844 L 24.894531 13.167969 L 23.386719 19.175781 C 23.273438 19.644531 23.046875 20.050781 22.71875 20.398438 C 22.386719 20.742188 21.988281 20.988281 21.53125 21.125 L 2.757812 26.757812 L 8.390625 7.984375 C 8.53125 7.523438 8.773438 7.128906 9.117188 6.796875 C 9.464844 6.46875 9.871094 6.242188 10.335938 6.128906 L 16.347656 4.625 Z M 16.535156 6.449219 L 10.777344 7.886719 C 10.441406 7.972656 10.226562 8.179688 10.128906 8.507812 L 5.464844 24.050781 L 21.007812 19.386719 C 21.335938 19.285156 21.542969 19.070312 21.625 18.738281 L 23.066406 12.980469 L 16.535156 6.445312 Z M 16.535156 6.449219 " fill-opacity="1" fill-rule="evenodd"/><path fill="#e3e3e3" d="M 5.621094 24.003906 L 15 16.332031 C 15.242188 16.332031 15.472656 16.285156 15.695312 16.191406 C 15.917969 16.101562 16.113281 15.96875 16.28125 15.800781 C 16.453125 15.628906 16.585938 15.433594 16.675781 15.210938 C 16.769531 14.988281 16.816406 14.757812 16.816406 14.515625 C 16.816406 14.277344 16.769531 14.042969 16.675781 13.820312 C 16.585938 13.597656 16.453125 13.402344 16.28125 13.234375 C 16.113281 13.0625 15.917969 12.933594 15.695312 12.839844 C 15.472656 12.746094 15.242188 12.703125 15 12.703125 C 14.757812 12.703125 14.527344 12.746094 14.304688 12.839844 C 14.082031 12.933594 13.886719 13.0625 13.71875 13.234375 C 13.546875 13.402344 13.414062 13.597656 13.324219 13.820312 C 13.230469 14.042969 13.183594 14.277344 13.183594 14.515625 L 5.515625 23.894531 L 5.464844 24.050781 Z M 5.621094 24.003906 " fill-opacity="1" fill-rule="evenodd"/></svg>