<svg xmlns="http://www.w3.org/2000/svg" xmlns:xlink="http://www.w3.org/1999/xlink" width="400" zoomAndPan="magnify" viewBox="0 0 300 52.499999" height="70" preserveAspectRatio="xMidYMid meet" version="1.0"><defs><g/><clipPath id="92696161c7"><path d="M 1.414062 3 L 33 3 L 33 50 L 1.414062 50 Z M 1.414062 3 " clip-rule="nonzero"/></clipPath><clipPath id="d0dddf5f7d"><path d="M 275.902344 27.707031 L 298.582031 27.707031 L 298.582031 49.875 L 275.902344 49.875 Z M 275.902344 27.707031 " clip-rule="nonzero"/></clipPath></defs><g clip-path="url(#92696161c7)"><g fill="#5c715e" fill-opacity="1"><g transform="translate(-1.974713, 49.211617)"><g><path d="M 19.375 0.453125 C 16.382812 0.453125 13.707031 -0.078125 11.34375 -1.140625 C 8.976562 -2.203125 7.125 -3.675781 5.78125 -5.5625 C 4.4375 -7.445312 3.742188 -9.625 3.703125 -12.09375 L 10.015625 -12.09375 C 10.222656 -9.96875 11.097656 -8.175781 12.640625 -6.71875 C 14.179688 -5.269531 16.425781 -4.546875 19.375 -4.546875 C 22.1875 -4.546875 24.40625 -5.25 26.03125 -6.65625 C 27.65625 -8.070312 28.46875 -9.882812 28.46875 -12.09375 C 28.46875 -13.820312 27.988281 -15.226562 27.03125 -16.3125 C 26.082031 -17.394531 24.890625 -18.21875 23.453125 -18.78125 C 22.023438 -19.34375 20.101562 -19.953125 17.6875 -20.609375 C 14.6875 -21.390625 12.285156 -22.164062 10.484375 -22.9375 C 8.691406 -23.71875 7.15625 -24.941406 5.875 -26.609375 C 4.601562 -28.285156 3.96875 -30.53125 3.96875 -33.34375 C 3.96875 -35.8125 4.59375 -38 5.84375 -39.90625 C 7.101562 -41.8125 8.867188 -43.285156 11.140625 -44.328125 C 13.421875 -45.367188 16.035156 -45.890625 18.984375 -45.890625 C 23.222656 -45.890625 26.695312 -44.828125 29.40625 -42.703125 C 32.113281 -40.578125 33.644531 -37.757812 34 -34.25 L 27.5 -34.25 C 27.28125 -35.988281 26.367188 -37.515625 24.765625 -38.828125 C 23.160156 -40.148438 21.035156 -40.8125 18.390625 -40.8125 C 15.921875 -40.8125 13.90625 -40.171875 12.34375 -38.890625 C 10.789062 -37.617188 10.015625 -35.835938 10.015625 -33.546875 C 10.015625 -31.890625 10.476562 -30.539062 11.40625 -29.5 C 12.34375 -28.46875 13.492188 -27.679688 14.859375 -27.140625 C 16.222656 -26.597656 18.140625 -25.976562 20.609375 -25.28125 C 23.597656 -24.457031 26 -23.644531 27.8125 -22.84375 C 29.632812 -22.039062 31.195312 -20.804688 32.5 -19.140625 C 33.800781 -17.472656 34.453125 -15.207031 34.453125 -12.34375 C 34.453125 -10.132812 33.863281 -8.054688 32.6875 -6.109375 C 31.519531 -4.160156 29.785156 -2.578125 27.484375 -1.359375 C 25.191406 -0.148438 22.488281 0.453125 19.375 0.453125 Z M 19.375 0.453125 "/></g></g></g></g><g fill="#1e1e1e" fill-opacity="1"><g transform="translate(36.181424, 49.211617)"><g><path d="M 2.796875 -22.6875 C 2.796875 -27.101562 3.789062 -31.078125 5.78125 -34.609375 C 7.78125 -38.140625 10.5 -40.898438 13.9375 -42.890625 C 17.382812 -44.890625 21.210938 -45.890625 25.421875 -45.890625 C 30.359375 -45.890625 34.664062 -44.695312 38.34375 -42.3125 C 42.03125 -39.925781 44.71875 -36.546875 46.40625 -32.171875 L 39.328125 -32.171875 C 38.066406 -34.898438 36.253906 -37 33.890625 -38.46875 C 31.535156 -39.945312 28.710938 -40.6875 25.421875 -40.6875 C 22.253906 -40.6875 19.410156 -39.945312 16.890625 -38.46875 C 14.378906 -37 12.410156 -34.910156 10.984375 -32.203125 C 9.554688 -29.492188 8.84375 -26.320312 8.84375 -22.6875 C 8.84375 -19.09375 9.554688 -15.941406 10.984375 -13.234375 C 12.410156 -10.523438 14.378906 -8.429688 16.890625 -6.953125 C 19.410156 -5.484375 22.253906 -4.75 25.421875 -4.75 C 28.710938 -4.75 31.535156 -5.472656 33.890625 -6.921875 C 36.253906 -8.367188 38.066406 -10.457031 39.328125 -13.1875 L 46.40625 -13.1875 C 44.71875 -8.851562 42.03125 -5.503906 38.34375 -3.140625 C 34.664062 -0.785156 30.359375 0.390625 25.421875 0.390625 C 21.210938 0.390625 17.382812 -0.59375 13.9375 -2.5625 C 10.5 -4.539062 7.78125 -7.285156 5.78125 -10.796875 C 3.789062 -14.304688 2.796875 -18.269531 2.796875 -22.6875 Z M 2.796875 -22.6875 "/></g></g></g><g fill="#1e1e1e" fill-opacity="1"><g transform="translate(86.357008, 49.211617)"><g><path d="M 31.78125 -10.078125 L 12.03125 -10.078125 L 8.390625 0 L 2.140625 0 L 18.53125 -45.046875 L 25.34375 -45.046875 L 41.671875 0 L 35.421875 0 Z M 30.09375 -14.890625 L 21.90625 -37.765625 L 13.71875 -14.890625 Z M 30.09375 -14.890625 "/></g></g></g><g fill="#1e1e1e" fill-opacity="1"><g transform="translate(130.16315, 49.211617)"><g><path d="M 50.953125 -44.984375 L 50.953125 0 L 45.046875 0 L 45.046875 -33.546875 L 30.09375 0 L 25.9375 0 L 10.921875 -33.609375 L 10.921875 0 L 5 0 L 5 -44.984375 L 11.375 -44.984375 L 28.015625 -7.796875 L 44.65625 -44.984375 Z M 50.953125 -44.984375 "/></g></g></g><g fill="#1e1e1e" fill-opacity="1"><g transform="translate(186.12322, 49.211617)"><g><path d="M 10.921875 -45.3125 L 10.921875 0 L 5 0 L 5 -45.3125 Z M 10.921875 -45.3125 "/></g></g></g><g fill="#1e1e1e" fill-opacity="1"><g transform="translate(202.111808, 49.211617)"><g><path d="M 10.921875 -4.8125 L 26.78125 -4.8125 L 26.78125 0 L 5 0 L 5 -45.3125 L 10.921875 -45.3125 Z M 10.921875 -4.8125 "/></g></g></g><g fill="#1e1e1e" fill-opacity="1"><g transform="translate(230.189322, 49.211617)"><g><path d="M 10.921875 -4.8125 L 26.78125 -4.8125 L 26.78125 0 L 5 0 L 5 -45.3125 L 10.921875 -45.3125 Z M 10.921875 -4.8125 "/></g></g></g><g fill="#1e1e1e" fill-opacity="1"><g transform="translate(258.266848, 49.211617)"><g><path d="M 10.921875 -45.3125 L 10.921875 0 L 5 0 L 5 -45.3125 Z M 10.921875 -45.3125 "/></g></g></g><g clip-path="url(#d0dddf5f7d)"><path fill="#5c715e" d="M 275.902344 27.707031 L 298.589844 27.707031 L 298.589844 49.875 L 275.902344 49.875 Z M 275.902344 27.707031 " fill-opacity="1" fill-rule="nonzero"/></g></svg>